# xmcd
#
# Track frame offsets: 
#        150
#        32125
#        59988
#        75733
#        86615
#        114268
#        127305
#        153688
#        176858
#        192825
#        228470
#        246848
#        274525
#        289133
#        307298
#
# Disc length: 4283 seconds
#
# Revision: 4
# Processed by: cddbd v1.5.2PL0 Copyright (c) Steve Scherf et al.
# Submitted via: ExactAudioCopy v0.99pb4
#
DISCID=e410b90f
DTITLE=Nina Simone - Angel Of The Morning
DYEAR=2000
DGENRE=Blues
TTITLE0=House Of The Rising Sun
TTITLE1=To Be Young, Gifted And Black
TTITLE2=Here Comes The Sun
TTITLE3=I Want A Little Sugar In My Bowl
TTITLE4=Gin House Blues
TTITLE5=Summertime
TTITLE6=You Can Have Him
TTITLE7=My Way
TTITLE8=Satin Doll
TTITLE9=Four Women
TTITLE10=Don't Let Me Be Misunderstood
TTITLE11=Nina's Blues
TTITLE12=Angel Of The Morning
TTITLE13=I Loves You Porgy
TTITLE14=Backlash Blues
EXTD=
EXTT0=
EXTT1=
EXTT2=
EXTT3=
EXTT4=
EXTT5=
EXTT6=
EXTT7=
EXTT8=
EXTT9=
EXTT10=
EXTT11=
EXTT12=
EXTT13=
EXTT14=
PLAYORDER=
